<svg xmlns="http://www.w3.org/2000/svg" width="16.156" height="19.217" viewBox="0 0 16.156 19.217">
  <g id="noun-lock-8131242" transform="translate(-10.648 -3.191)">
    <path id="Path_4421" data-name="Path 4421" d="M12.4,12.9h.731V8.785a5.59,5.59,0,0,1,11.181,0V12.9c.767,0,1.372-.082,1.971.516h0a1.75,1.75,0,0,1,.516,1.24v5.993a1.763,1.763,0,0,1-1.756,1.756H12.4a1.762,1.762,0,0,1-1.756-1.756V14.658A1.76,1.76,0,0,1,12.4,12.9Zm2.583,0h7.479V8.785a3.739,3.739,0,0,0-7.479,0Z" transform="translate(0)" fill="#f44336" fill-rule="evenodd"/>
  </g>
</svg>
