<svg xmlns="http://www.w3.org/2000/svg" width="14.193" height="14.166" viewBox="0 0 14.193 14.166">
  <g id="noun-save-2209758" transform="translate(-41.2 -41.5)">
    <g id="Group_1121" data-name="Group 1121" transform="translate(41.2 41.5)">
      <path id="Path_4418" data-name="Path 4418" d="M55.393,257.775v3.142a.715.715,0,0,1-.022.174h0a.675.675,0,0,1-.657.541H41.875a.672.672,0,0,1-.666-.6.529.529,0,0,1-.009-.121V257.77a.67.67,0,0,1,1.341,0v2.516H54.056V257.77A.67.67,0,0,1,55.2,257.3.708.708,0,0,1,55.393,257.775Z" transform="translate(-41.2 -247.465)" fill="#535353"/>
      <path id="Path_4419" data-name="Path 4419" d="M116.454,48.663l-3.293,3.293c0,.009-.013.013-.018.018a.776.776,0,0,1-.433.219c-.013,0-.027,0-.04,0a.485.485,0,0,1-.08,0h0l-.076,0c-.013,0-.027,0-.04,0a.762.762,0,0,1-.433-.219l-.018-.018-3.293-3.293a.784.784,0,1,1,1.108-1.108l1.98,1.98V42.282a.786.786,0,0,1,.782-.782.8.8,0,0,1,.554.228.772.772,0,0,1,.228.554v7.253l1.98-1.98a.788.788,0,0,1,1.108,0A.8.8,0,0,1,116.454,48.663Z" transform="translate(-105.493 -41.5)" fill="#535353"/>
    </g>
  </g>
</svg>
