<?xml version="1.0" encoding="UTF-8"?>
<svg id="Layer_1" xmlns="http://www.w3.org/2000/svg" xmlns:xlink="http://www.w3.org/1999/xlink" version="1.1" viewBox="0 0 213.7200012 35.151001">
  <!-- Generator: Adobe Illustrator 30.2.1, SVG Export Plug-In . SVG Version: 2.1.1 Build 1)  -->
  <defs>
    <style>
      .st0 {
        fill: none;
      }

      .st1 {
        fill: #e10034;
      }

      .st2 {
        isolation: isolate;
      }

      .st3 {
        clip-path: url(#clippath);
      }
    </style>
    <clipPath id="clippath">
      <rect class="st0" y="0" width="213.7200012" height="35.151001"/>
    </clipPath>
  </defs>
  <g id="Group_23">
    <g class="st3">
      <g id="Group_22">
        <g id="Designer_Pages_PRO" class="st2">
          <g class="st2">
            <path d="M45.0561523,24.0792847c-.3569336,0-.6630859-.3056641-.6630859-.6796875v-10.3530273c0-.3740234.3061523-.6796875.6630859-.6796875h3.8754883c3.331543,0,5.2695312,2.5498047,5.2695312,5.8818359,0,3.3149414-1.9379883,5.8305664-5.2695312,5.8305664h-3.8754883ZM48.9316406,22.600769c2.4306641,0,3.6884766-1.8867188,3.6884766-4.3520508,0-2.4648438-1.2578125-4.4033203-3.6884766-4.4033203h-2.9575195v8.7553711h2.9575195Z"/>
            <path d="M63.2451172,20.6964722h-5.847168c.1865234,1.3261719,1.2236328,2.1591797,2.5664062,2.1591797.9521484,0,1.4790039-.2382812,2.0229492-.8330078.2890625-.3232422.730957-.4248047,1.0366211-.2041016.3061523.2382812.3740234.6972656.1362305.96875-.7651367.9863281-1.9545898,1.4619141-3.246582,1.4619141-2.2607422,0-4.0625-1.6484375-4.0625-4.1640625,0-2.5170898,1.8017578-4.1147461,4.0625-4.1147461s3.9433594,1.5976562,3.9433594,4.1147461c0,.3564453-.2890625.6113281-.6118164.6113281ZM62.3271484,19.4894409c-.1870117-1.3256836-1.1386719-2.1245117-2.4135742-2.1245117-1.309082,0-2.3291016.7988281-2.515625,2.1245117h4.9291992Z"/>
            <path d="M68.2431641,22.8898315c.7988281,0,1.394043-.4257812,1.394043-1.0546875,0-.5771484-.4589844-.8662109-1.0541992-1.0029297l-1.0878906-.2548828c-1.3427734-.3564453-2.1416016-1.0195312-2.1416016-2.277832,0-1.3085938,1.1728516-2.3291016,2.7709961-2.3291016,1.0366211,0,2.0395508.3740234,2.4985352,1.2919922.0678711.1191406.0849609.2548828.0849609.3574219,0,.5097656-.4931641.6962891-.730957.6962891-.2207031,0-.3911133-.1191406-.5610352-.3398438-.3569336-.4755859-.7646484-.6630859-1.2578125-.6630859-.7480469,0-1.2407227.4423828-1.2407227,1.0371094,0,.5097656.4926758.7993164,1.0029297.918457l1.1728516.2890625c1.6489258.4082031,2.0566406,1.4111328,2.0566406,2.3115234,0,1.4794922-1.4277344,2.3798828-3.0766602,2.3798828-1.2236328,0-2.4819336-.6796875-2.8554688-1.9033203-.0170898-.0849609-.0341797-.1708984-.0341797-.2382812,0-.4082031.3911133-.6123047.7480469-.6123047.2719727,0,.5439453.1367188.6625977.4423828.2211914.578125.8500977.9521484,1.6489258.9521484Z"/>
            <path d="M73.8027344,12.2311401c.5952148,0,1.0708008.4248047,1.0708008,1.0029297s-.4755859,1.0029297-1.0708008,1.0029297c-.578125,0-1.0708008-.4248047-1.0708008-1.0029297s.4926758-1.0029297,1.0708008-1.0029297ZM74.5844727,16.8375854c0-.4248047-.3398438-.7822266-.7817383-.7822266-.4248047,0-.7651367.3574219-.7651367.7822266v6.5444336c0,.4257812.340332.7822266.7651367.7822266.4418945,0,.7817383-.3564453.7817383-.7822266v-6.5444336Z"/>
            <path d="M80.5849609,26.5783081c1.7167969,0,2.8217773-.96875,2.8217773-3.6035156,0-.0683594,0-.1191406-.0170898-.1875-.4755859.9345703-1.6826172,1.4619141-2.7875977,1.4619141-2.1757812,0-4.0283203-1.5976562-4.0283203-4.1132812,0-2.5336914,1.8525391-4.1655273,4.0283203-4.1655273,1.1049805,0,2.2607422.4931641,2.7875977,1.4111328v-.5439453c0-.4248047.340332-.7822266.7651367-.7822266.4418945,0,.7817383.3574219.7817383.7822266v6.034668c-.0170898,3.7402344-1.7338867,5.1679688-4.3515625,5.1679688-1.2578125,0-2.4477539-.5615234-3.246582-1.6152344-.2207031-.3232422-.1020508-.7988281.2548828-1.0029297.3232422-.2041016.7480469-.0341797,1.0541992.3056641.5097656.5615234,1.2407227.8505859,1.9375.8505859ZM80.7382812,17.4830933c-1.4282227,0-2.5839844,1.0878906-2.5839844,2.6352539,0,1.6152344,1.1557617,2.6181641,2.5839844,2.6181641,1.2749023,0,2.6347656-.9345703,2.6347656-2.6181641,0-1.699707-1.2241211-2.6352539-2.6347656-2.6352539Z"/>
            <path d="M88.9487305,17.3307495c.4760742-.9521484,1.6152344-1.3603516,2.4819336-1.3603516,1.9716797,0,3.0595703,1.2919922,3.0595703,3.519043v3.8925781c0,.4257812-.3398438.7822266-.7817383.7822266-.4248047,0-.7651367-.3564453-.7651367-.7822266v-3.7900391c0-1.3266602-.6625977-2.1088867-1.7504883-2.1088867-1.1220703,0-2.2441406.6289062-2.2441406,2.3129883v3.5859375c0,.4257812-.3398438.7822266-.7817383.7822266-.4248047,0-.7651367-.3564453-.7651367-.7822266v-6.5444336c0-.4248047.340332-.7822266.7651367-.7822266.4418945,0,.7817383.3574219.7817383.7822266v.4931641Z"/>
            <path d="M103.8061523,20.6964722h-5.8476562c.1870117,1.3261719,1.2241211,2.1591797,2.5668945,2.1591797.9521484,0,1.4790039-.2382812,2.0229492-.8330078.2890625-.3232422.730957-.4248047,1.0366211-.2041016.3061523.2382812.3740234.6972656.1362305.96875-.7651367.9863281-1.9550781,1.4619141-3.246582,1.4619141-2.2607422,0-4.0625-1.6484375-4.0625-4.1640625,0-2.5170898,1.8017578-4.1147461,4.0625-4.1147461s3.9433594,1.5976562,3.9433594,4.1147461c0,.3564453-.2890625.6113281-.6118164.6113281ZM102.8881836,19.4894409c-.1870117-1.3256836-1.1386719-2.1245117-2.4135742-2.1245117-1.309082,0-2.3291016.7988281-2.5161133,2.1245117h4.9296875Z"/>
          </g>
          <g class="st2">
            <path d="M109.9599609,17.4498901c-1.5292969,0-2.1757812,1.6323242-2.1757812,3.7397461v2.1923828c0,.4257812-.3398438.7822266-.78125.7822266-.4248047,0-.765625-.3564453-.765625-.7822266v-6.5444336c0-.4248047.3408203-.7822266.765625-.7822266.4414062,0,.78125.3574219.78125.7822266v1.0878906c.4082031-1.3935547,1.1728516-1.9550781,2.2099609-1.9550781.578125,0,1.5302734.1191406,1.3945312.9521484-.0849609.4931641-.5273438.5947266-1.0712891.5439453-.1191406-.0166016-.2548828-.0166016-.3574219-.0166016Z"/>
          </g>
          <g class="st2">
            <path d="M118.6650391,23.3654175c0,.4423828-.3408203.7988281-.7998047.7988281-.4414062,0-.78125-.3564453-.78125-.7988281v-10.3188477c0-.3740234.3056641-.6796875.6630859-.6796875h4.0107422c2.4824219,0,3.4853516,1.8359375,3.4853516,3.671875,0,1.8525391-1.0029297,3.6547852-3.4853516,3.6547852h-3.0927734v3.671875ZM118.6816406,13.8453979v4.3691406h2.9746094c1.4277344,0,2.0058594-1.0878906,2.0058594-2.1757812,0-1.0712891-.5605469-2.1933594-1.9208984-2.1933594h-3.0595703Z"/>
          </g>
          <g class="st2">
            <path d="M133.0283203,22.8556519c-.5263672.9003906-1.6826172,1.3935547-2.7871094,1.3935547-2.1757812,0-4.0283203-1.6318359-4.0283203-4.1474609,0-2.5336914,1.8525391-4.1313477,4.0283203-4.1313477,1.1044922,0,2.2607422.4589844,2.7871094,1.3603516v-.4931641c0-.4248047.3408203-.7822266.765625-.7822266.4414062,0,.78125.3574219.78125.7822266v6.5444336c0,.4257812-.3398438.7822266-.78125.7822266-.4248047,0-.765625-.3564453-.765625-.7822266v-.5263672ZM130.3769531,17.4830933c-1.4277344,0-2.5839844,1.0205078-2.5839844,2.6020508,0,1.5634766,1.15625,2.6513672,2.5839844,2.6513672,1.4111328,0,2.6347656-.96875,2.6347656-2.6513672,0-1.7006836-1.359375-2.6020508-2.6347656-2.6020508Z"/>
            <path d="M140.5771484,26.5783081c1.7167969,0,2.8212891-.96875,2.8212891-3.6035156,0-.0683594,0-.1191406-.0166016-.1875-.4755859.9345703-1.6826172,1.4619141-2.7880859,1.4619141-2.1757812,0-4.0283203-1.5976562-4.0283203-4.1132812,0-2.5336914,1.8525391-4.1655273,4.0283203-4.1655273,1.1054688,0,2.2607422.4931641,2.7880859,1.4111328v-.5439453c0-.4248047.3398438-.7822266.7646484-.7822266.4423828,0,.7822266.3574219.7822266.7822266v6.034668c-.0175781,3.7402344-1.734375,5.1679688-4.3515625,5.1679688-1.2578125,0-2.4482422-.5615234-3.2470703-1.6152344-.2207031-.3232422-.1015625-.7988281.2548828-1.0029297.3232422-.2041016.7480469-.0341797,1.0546875.3056641.5097656.5615234,1.2402344.8505859,1.9375.8505859ZM140.7304688,17.4830933c-1.4287109,0-2.5839844,1.0878906-2.5839844,2.6352539,0,1.6152344,1.1552734,2.6181641,2.5839844,2.6181641,1.2744141,0,2.6347656-.9345703,2.6347656-2.6181641,0-1.699707-1.2246094-2.6352539-2.6347656-2.6352539Z"/>
            <path d="M154.3291016,20.6964722h-5.8476562c.1875,1.3261719,1.2246094,2.1591797,2.5673828,2.1591797.9521484,0,1.4785156-.2382812,2.0224609-.8330078.2890625-.3232422.7314453-.4248047,1.0371094-.2041016.3056641.2382812.3740234.6972656.1357422.96875-.7646484.9863281-1.9550781,1.4619141-3.2460938,1.4619141-2.2607422,0-4.0625-1.6484375-4.0625-4.1640625,0-2.5170898,1.8017578-4.1147461,4.0625-4.1147461s3.9433594,1.5976562,3.9433594,4.1147461c0,.3564453-.2890625.6113281-.6123047.6113281ZM153.4111328,19.4894409c-.1865234-1.3256836-1.1386719-2.1245117-2.4130859-2.1245117-1.3095703,0-2.3291016.7988281-2.5166016,2.1245117h4.9296875Z"/>
            <path d="M159.3271484,22.8898315c.7988281,0,1.3945312-.4257812,1.3945312-1.0546875,0-.5771484-.4589844-.8662109-1.0546875-1.0029297l-1.0878906-.2548828c-1.3427734-.3564453-2.1416016-1.0195312-2.1416016-2.277832,0-1.3085938,1.1728516-2.3291016,2.7705078-2.3291016,1.0371094,0,2.0400391.3740234,2.4990234,1.2919922.0683594.1191406.0849609.2548828.0849609.3574219,0,.5097656-.4931641.6962891-.7304688.6962891-.2216797,0-.3916016-.1191406-.5615234-.3398438-.3564453-.4755859-.7646484-.6630859-1.2578125-.6630859-.7480469,0-1.2402344.4423828-1.2402344,1.0371094,0,.5097656.4921875.7993164,1.0029297.918457l1.1728516.2890625c1.6484375.4082031,2.0566406,1.4111328,2.0566406,2.3115234,0,1.4794922-1.4277344,2.3798828-3.0771484,2.3798828-1.2236328,0-2.4814453-.6796875-2.8554688-1.9033203-.0166016-.0849609-.0341797-.1708984-.0341797-.2382812,0-.4082031.3916016-.6123047.7480469-.6123047.2724609,0,.5439453.1367188.6630859.4423828.2207031.578125.8496094.9521484,1.6484375.9521484Z"/>
            <path d="M170.4111328,23.3654175c0,.4423828-.3398438.7988281-.7988281.7988281-.4414062,0-.78125-.3564453-.78125-.7988281v-10.3188477c0-.3740234.3056641-.6796875.6630859-.6796875h4.0107422c2.4824219,0,3.4853516,1.8359375,3.4853516,3.671875,0,1.8525391-1.0029297,3.6547852-3.4853516,3.6547852h-3.09375v3.671875ZM170.4287109,13.8453979v4.3691406h2.9746094c1.4277344,0,2.0058594-1.0878906,2.0058594-2.1757812,0-1.0712891-.5605469-2.1933594-1.9208984-2.1933594h-3.0595703Z"/>
            <path d="M182.2099609,19.6935425h-1.5136719v3.671875c0,.4423828-.3398438.7988281-.7988281.7988281-.4414062,0-.78125-.3564453-.78125-.7988281v-10.3188477c0-.3740234.3056641-.6796875.6630859-.6796875h3.8408203c2.4648438,0,3.4677734,1.8359375,3.4677734,3.671875,0,1.7333984-.8662109,3.4174805-3.0595703,3.6040039l2.2949219,3.2636719c.2548828.3740234.1865234.8496094-.1875,1.1044922-.3564453.2724609-.8320312.1699219-1.1044922-.203125l-2.8212891-4.1142578ZM180.7138672,13.8453979v4.3691406h2.7880859c1.4277344,0,1.9541016-1.0878906,1.9541016-2.1757812,0-1.0712891-.5263672-2.1933594-1.8867188-2.1933594h-2.8554688Z"/>
            <path d="M194.6699219,12.2311401c3.3486328,0,5.9492188,2.6855469,5.9492188,6.0175781,0,3.3149414-2.6005859,6.0004883-5.9492188,6.0004883-3.3320312,0-5.9150391-2.6855469-5.9150391-6.0004883,0-3.3320312,2.5830078-6.0175781,5.9150391-6.0175781ZM194.6699219,22.7199097c2.4648438,0,4.3515625-1.9892578,4.3515625-4.4711914,0-2.4824219-1.8867188-4.4882812-4.3515625-4.4882812-2.4472656,0-4.3349609,2.0058594-4.3349609,4.4882812,0,2.4819336,1.8876953,4.4711914,4.3349609,4.4711914Z"/>
          </g>
        </g>
        <g id="Path_8">
          <path class="st1" d="M29.7180004,5.7160001c-2.9910011-2.9840001-14.7180004-3.5160001-20.7680004-1.5660001-1.77335.5886446-2.9648865,2.2535642-2.95,4.1219999v18.5999999c.0036322,1.9232445,1.2608988,3.619339,3.0999999,4.1820011,6.0999999,1.8849983,17.6539998,1.3459988,20.6180005-1.6210003,3.6259995-3.6259995,3.6259995-20.0909996,0-23.7180004M12.5999999,26.0279999c-1.0493264.0055161-1.9044452-.8406601-1.9099612-1.889986-.0055156-1.0493259.8406601-1.9044456,1.8899865-1.9099617s1.9044452.8406601,1.9099612,1.889986c.0000296.0056553.0000343.0113087.0000134.0169621-.0038271,1.042717-.847291,1.8875179-1.8899999,1.8929996M12.5999999,19.4710007c-1.0493264.0055161-1.9044452-.8406601-1.9099612-1.889986-.0055156-1.0493269.8406601-1.9044456,1.8899865-1.9099617,1.0493264-.0055151,1.9044452.8406601,1.9099612,1.889987.0000296.0056534.0000343.0113068.0000134.0169601-.0038271,1.042717-.8472905,1.8875189-1.8899999,1.8930006M12.5999999,12.9210005c-1.049334.0038662-1.903121-.8436537-1.9069867-1.8929873-.0038662-1.049334.8436532-1.903121,1.8929873-1.9069867,1.0493336-.0038662,1.903121.8436532,1.9069862,1.8929868.0000086.0023298.0000134.0046587.0000134.0069876.0000067,1.0466127-.8463941,1.896143-1.8930001,1.8999987"/>
        </g>
      </g>
    </g>
  </g>
</svg>