<svg xmlns="http://www.w3.org/2000/svg" width="41" height="41" viewBox="0 0 41 41">
  <g id="Group_1124" data-name="Group 1124" transform="translate(-1421 -202)">
    <circle id="Ellipse_256" data-name="Ellipse 256" cx="20.5" cy="20.5" r="20.5" transform="translate(1421 202)" fill="#e2e6ee"/>
    <g id="noun-dollar-sign-7878052" transform="translate(1196.006 -160.441)">
      <path id="Path_4420" data-name="Path 4420" d="M39.985,31.214v.621A1.866,1.866,0,0,0,41.849,33.7h1.243a4.354,4.354,0,0,1,4.35,4.35v.621a4.354,4.354,0,0,1-3.728,4.3v.671a1.243,1.243,0,0,1-2.485,0V42.97a4.354,4.354,0,0,1-3.728-4.3,1.243,1.243,0,1,1,2.485,0,1.866,1.866,0,0,0,1.864,1.864h1.243a1.866,1.866,0,0,0,1.864-1.864v-.621a1.866,1.866,0,0,0-1.864-1.864H41.85a4.354,4.354,0,0,1-4.35-4.35v-.621a4.354,4.354,0,0,1,3.728-4.3v-.671a1.243,1.243,0,1,1,2.485,0v.671a4.354,4.354,0,0,1,3.728,4.3,1.243,1.243,0,1,1-2.485,0,1.866,1.866,0,0,0-1.864-1.864H41.849A1.866,1.866,0,0,0,39.985,31.214Z" transform="translate(203.022 348)" fill="#6a7489"/>
    </g>
  </g>
</svg>
