<?xml version="1.0" encoding="UTF-8"?>
<svg id="Layer_1" xmlns="http://www.w3.org/2000/svg" version="1.1" viewBox="0 0 41 41">
  <!-- Generator: Adobe Illustrator 30.2.1, SVG Export Plug-In . SVG Version: 2.1.1 Build 1)  -->
  <defs>
    <style>
      .st0 {
        fill: #e2e6ee;
      }

      .st1 {
        fill: #6a7489;
      }
    </style>
  </defs>
  <g id="Group_1126">
    <circle id="Ellipse_253" class="st0" cx="20.5" cy="20.499939" r="20.5"/>
    <g>
      <path class="st1" d="M21.8701172,19.6383667v-4.6035156c0-.4799805-.390625-.8706055-.8706055-.8706055s-.8706055.390625-.8706055.8706055v4.9638672c0,.2329102.0908203.4516602.2553711.6157227l2.4819336,2.4775391c.1640625.1640625.3828125.2548828.6152344.2548828s.4511719-.0908203.6152344-.2548828.2548828-.3828125.2548828-.6152344-.0908203-.4511719-.2548828-.6152344l-2.2265625-2.2231445Z"/>
      <path class="st1" d="M21,11.0626831c-4.9277344,0-8.9370117,4.0092773-8.9370117,8.9370117,0,4.9282227,4.0092773,8.9370117,8.9370117,8.9370117s8.9365234-4.0087891,8.9365234-8.9375c-.0068359-4.9199219-4.015625-8.9291992-8.9365234-8.9365234ZM21,27.194519c-3.9677734,0-7.1958008-3.2285156-7.1958008-7.1958008,0-3.9677734,3.2280273-7.1958008,7.1958008-7.1958008s7.1962891,3.2280273,7.1962891,7.1953125c-.0048828,3.9648438-3.2333984,7.1923828-7.1962891,7.1962891Z"/>
    </g>
  </g>
</svg>