<svg xmlns="http://www.w3.org/2000/svg" width="13.447" height="14.567" viewBox="0 0 13.447 14.567">
  <g id="noun-save-5589409" transform="translate(-4 -3)">
    <path id="Path_4412" data-name="Path 4412" d="M5.681,3A1.686,1.686,0,0,0,4,4.681V15.886a1.686,1.686,0,0,0,1.681,1.681H15.766a1.686,1.686,0,0,0,1.681-1.681V6.266a1.656,1.656,0,0,0-.493-1.188L15.368,3.493A1.666,1.666,0,0,0,14.18,3ZM7.362,16.447V12.525a.562.562,0,0,1,.56-.56h5.6a.562.562,0,0,1,.56.56v3.922ZM14.578,4.283l1.586,1.586a.555.555,0,0,1,.162.4v9.62a.562.562,0,0,1-.56.56h-.56V12.525a1.686,1.686,0,0,0-1.681-1.681h-5.6a1.686,1.686,0,0,0-1.681,1.681v3.922h-.56a.562.562,0,0,1-.56-.56V4.681a.562.562,0,0,1,.56-.56H7.362V5.8A1.686,1.686,0,0,0,9.042,7.482H12.4A1.686,1.686,0,0,0,14.085,5.8V4.121h.1A.589.589,0,0,1,14.578,4.283Zm-1.614-.162V5.8a.562.562,0,0,1-.56.56H9.042a.562.562,0,0,1-.56-.56V4.121Z" fill="#fff"/>
  </g>
</svg>
