<svg xmlns="http://www.w3.org/2000/svg" width="41" height="41" viewBox="0 0 41 41">
  <g id="Group_1128" data-name="Group 1128" transform="translate(-278 -202)">
    <circle id="Ellipse_251" data-name="Ellipse 251" cx="20.5" cy="20.5" r="20.5" transform="translate(278 202)" fill="#d8f3e2"/>
    <g id="noun-check-4728432" transform="translate(279.75 203.75)">
      <path id="Path_4416" data-name="Path 4416" d="M36.9,35.022l-4.743,4.74L30.031,37.64a.7.7,0,1,0-.993.993l2.618,2.618a.7.7,0,0,0,.993,0l5.239-5.237a.7.7,0,1,0-.993-.993Z" transform="translate(-14.713 -19.387)" fill="#568e60"/>
      <path id="Path_4417" data-name="Path 4417" d="M18.75,10a8.75,8.75,0,1,0,8.75,8.75A8.759,8.759,0,0,0,18.75,10Zm0,16.1A7.346,7.346,0,1,1,26.1,18.75,7.354,7.354,0,0,1,18.75,26.1Z" fill="#568e60"/>
    </g>
  </g>
</svg>
