<svg xmlns="http://www.w3.org/2000/svg" width="41" height="41" viewBox="0 0 41 41">
  <g id="Group_1125" data-name="Group 1125" transform="translate(-818 -202)">
    <circle id="Ellipse_254" data-name="Ellipse 254" cx="20.5" cy="20.5" r="20.5" transform="translate(818 202)" fill="#e2e6ee"/>
    <g id="noun-send-4547031" transform="translate(826.177 224.602) rotate(-60)">
      <path id="Path_4413" data-name="Path 4413" d="M6.557,2.8a12.233,12.233,0,0,0-1.509-.649,2.364,2.364,0,0,0-2.173.267A2.309,2.309,0,0,0,2,4.4a11.932,11.932,0,0,0,.2,1.617l.642,3.8L2.2,13.656A11.953,11.953,0,0,0,2,15.275a2.31,2.31,0,0,0,.875,1.989,2.364,2.364,0,0,0,2.176.263,12.248,12.248,0,0,0,1.51-.653l7.536-3.64a19.026,19.026,0,0,0,2.2-1.172,2.728,2.728,0,0,0,1.378-2.242,2.729,2.729,0,0,0-1.383-2.239,19.017,19.017,0,0,0-2.2-1.167ZM4.294,9.072H9.857a.769.769,0,1,1,0,1.538H4.288L3.75,13.819c-.216,1.289-.325,1.933.055,2.213s.972-.006,2.158-.579L13.318,11.9c1.871-.9,2.807-1.356,2.806-2.077s-.937-1.171-2.811-2.071L5.961,4.22C4.776,3.651,4.183,3.366,3.8,3.647s-.27.924-.053,2.211Z" fill="#6a7489" fill-rule="evenodd"/>
    </g>
  </g>
</svg>
