<?xml version="1.0" encoding="UTF-8"?>
<svg id="Layer_1" xmlns="http://www.w3.org/2000/svg" version="1.1" viewBox="0 0 14.5542538 15.3470926">
  <!-- Generator: Adobe Illustrator 30.2.1, SVG Export Plug-In . SVG Version: 2.1.1 Build 1)  -->
  <defs>
    <style>
      .st0 {
        fill: #fff;
        fill-rule: evenodd;
      }
    </style>
  </defs>
  <g id="noun-send-4547031">
    <path id="Path_4413" class="st0" d="M2.5797064,5.8650163c-.4001984.2587633-.7825403.5441488-1.1444381.8542252-.5193291.4269081-.7968742,1.0809368-.7430822,1.7510559.0957952.6614581.514578,1.2318293,1.1169919,1.5213136.4205396.2118487.8550241.3947987,1.3004357.5475795l3.136884,1.1667579,2.6052308,2.1496084c.3589204.3118758.7388329.5987352,1.1370594.8585544.5523067.3773172,1.2562896.4546845,1.877358.2063208.6074598-.2895094,1.0345841-.8582098,1.1433199-1.522288.0867406-.4690106.1418533-.9433214.1649632-1.4197253l.5347618-7.2522346c.0723026-.7194872.097318-1.4429433.0748865-2.1657065.0068351-.8130721-.4034437-1.5729358-1.0870175-2.0132303-.7226555-.3704295-1.5846191-.3452506-2.2844194.0667302-.6382632.3451245-1.2530998.7319178-1.8405162,1.1578669L2.5797064,5.8650163ZM6.3174107,10.2931223l2.4169998-4.1863664c.1841946-.3196543.5926441-.4294666.9122988-.2452728.3196543.1841946.429467.5926454.2452724.9122997l-.0005617.0009729-2.4194999,4.1906966,2.1813453,1.7998001c.8759484.7228127,1.3139229,1.0842194,1.6893672.9199309s.4181698-.7342915.5044872-1.8737974l.5177494-7.0807681c.1331704-1.8006576.1993226-2.7012358-.339846-3.0113698s-1.2912118.1944438-2.7798456,1.2148334l-5.8535641,3.9966701c-.9436826.6445064-1.415091.9670092-1.3700127,1.3729316s.5753205.603516,1.6406348,1.0003372l2.6551752.9891019Z"/>
  </g>
</svg>