<svg xmlns="http://www.w3.org/2000/svg" width="9.398" height="8.819" viewBox="0 0 9.398 8.819">
  <g id="Group_1139" data-name="Group 1139" transform="translate(-1.992 -2.86)">
    <path id="Path_4438" data-name="Path 4438" d="M7.753,6.444a.611.611,0,0,1-.01.174.012.012,0,0,1,0,.007.589.589,0,0,1-.151.275.577.577,0,0,1-.815,0,.962.962,0,0,0-.859-.262h0a1.163,1.163,0,0,0-.185.054,1.011,1.011,0,0,0-.315.208l-.9.9h0L3.425,8.894a.962.962,0,0,0,0,1.356.981.981,0,0,0,1.356,0l.829-.829a2.913,2.913,0,0,0,1.158.47L5.6,11.061A2.112,2.112,0,0,1,2.609,8.075L4.6,6.085a2.114,2.114,0,0,1,2.987,0,.561.561,0,0,1,.1.148l.013.023a.576.576,0,0,1,.044.161A.045.045,0,0,1,7.753,6.444Zm3.02-2.966a2.114,2.114,0,0,0-2.987,0L6.612,4.652a2.924,2.924,0,0,1,1.158.47L8.6,4.293a.981.981,0,0,1,1.356,0,.956.956,0,0,1,0,1.356l-.366.366h0L7.968,7.638a.981.981,0,0,1-1.356,0,.577.577,0,0,0-.815.815,2.114,2.114,0,0,0,2.987,0L10.408,6.83h0l.366-.366a2.114,2.114,0,0,0,0-2.987Z" transform="translate(0)" fill="#0fbeff"/>
  </g>
</svg>
