<?xml version="1.0" encoding="UTF-8"?>
<svg id="Layer_1" xmlns="http://www.w3.org/2000/svg" version="1.1" viewBox="0 0 8.1239996 9.9530001">
  <!-- Generator: Adobe Illustrator 30.2.1, SVG Export Plug-In . SVG Version: 2.1.1 Build 1)  -->
  <defs>
    <style>
      .st0 {
        fill: #f44336;
      }
    </style>
  </defs>
  <path class="st0" d="M6.8027344,3.6588717h-.203125v-1.0668945C6.6279297,1.1940279,5.5136719.0333834,4.1157227.0050631c-.6713867-.0039062-1.3188477.2373047-1.8076172.706543s-.765625,1.1005859-.7792969,1.7783203c-.0004883.0336914-.0004883.0678711,0,.1000977v1.0576172h-.199707C.6000977,3.6476412.0039062,4.2409029,0,4.9708834v3.6601562c.0039062.7255859.597168,1.3183594,1.3232422,1.3212891h5.4765625c.7255859-.0029297,1.3193359-.5957031,1.3232422-1.3222656v-3.659668c-.0048828-.7241211-.5966797-1.3115234-1.3203125-1.3115234ZM2.3320312,3.6476412v-1.0600586c-.0224609-.9536133.7353516-1.7475586,1.6889648-1.7700195.4570312-.0048828.9008789.1591797,1.2348633.4780273s.5244141.7490234.5351562,1.2124023c.0009766.0258789.0009766.0522461,0,.0820312v1.0576172h-3.4589844ZM7.3066406,4.9708834v3.6591797c0,.2783203-.2265625.5058594-.5068359.5058594H1.3212891c-.2773438,0-.5039062-.2265625-.5043945-.5058594v-3.6591797c-.0004883-.1347656.0522461-.2617188.1474609-.3574219s.2216797-.1484375.3588867-.1484375h5.4775391c.2783203,0,.5048828.2260742.5058594.5058594Z"/>
  <path class="st0" d="M4.0600586,5.4869967c-.2485352.0029297-.4804688.1381836-.6054688.3525391-.1870117.3208008-.0927734.7299805.206543.9389648v.9453125c0,.2216797.1806641.4023438.402832.4023438s.4033203-.1806641.4033203-.4023438v-.9453125c.1606445-.1142578.2670898-.2910156.293457-.4853516l.0048828-.0488281c.0004883-.0068359.0004883-.0136719.0009766-.0205078l.0014648-.0253906c.0004883-.0126953.0004883-.0253906,0-.0380859-.0048828-.1845703-.0810547-.355957-.215332-.4833984-.1342773-.1269531-.3193359-.1884766-.4926758-.1899414Z"/>
</svg>