<?xml version="1.0" encoding="UTF-8"?>
<svg id="Group_1220" xmlns="http://www.w3.org/2000/svg" version="1.1" viewBox="0 0 18 18">
  <!-- Generator: Adobe Illustrator 30.2.1, SVG Export Plug-In . SVG Version: 2.1.1 Build 1)  -->
  <defs>
    <style>
      .st0 {
        fill: #0fbeff;
      }
    </style>
  </defs>
  <g id="Ellipse_295">
    <path class="st0" d="M9-.0001831C4.0300293-.0001831,0,4.0298462,0,8.9998169c0,4.9700317,4.0300293,9,9,9s9-4.0299683,9-9C18,4.0298462,13.9699707-.0001831,9-.0001831ZM12.539978,9.9498291h-2.3599854v2.3699951c0,.5499878-.4500122,1-1,1-.5599976,0-1-.4500122-1-1v-2.3699951h-2.3699951c-.5499878,0-1-.4500122-1-1s.4500122-1,1-1h2.3699951v-2.3599854c0-.5599976.4400024-1,1-1,.5499878,0,1,.4400024,1,1v2.3599854h2.3599854c.5599976,0,1,.4500122,1,1s-.4400024,1-1,1Z"/>
  </g>
</svg>