<svg xmlns="http://www.w3.org/2000/svg" width="12.571" height="10" viewBox="0 0 12.571 10">
  <g id="noun-issue-reopened-4601603" transform="translate(-2 -5)">
    <path id="Path_4473" data-name="Path 4473" d="M8.364,5.909A4.091,4.091,0,0,0,4.288,9.64L4.7,9.224a.455.455,0,0,1,.643.643L4.062,11.153a.454.454,0,0,1-.643,0L2.133,9.867a.455.455,0,0,1,.643-.643l.591.591A5,5,0,0,1,12.694,7.5a.455.455,0,1,1-.787.455A4.089,4.089,0,0,0,8.364,5.909Zm3.5,5.243.542-.543a4.092,4.092,0,0,1-7.319,1.845A.455.455,0,0,0,4.364,13a5,5,0,0,0,8.954-2.325l.477.477a.455.455,0,0,0,.643-.643L13.153,9.224a.455.455,0,0,0-.643,0L11.224,10.51a.455.455,0,0,0,.643.643ZM9.273,10a.909.909,0,1,1-.909-.909A.909.909,0,0,1,9.273,10Z" fill="#0fbeff" fill-rule="evenodd"/>
  </g>
</svg>
